# xmcd
#
# Track frame offsets:
#	150
#	26631
#	49713
#	69793
#	90248
#	108322
#	123818
#	149234
#	168568
#	185374
#	206902
#	224328
#
# Disc length: 3276 seconds
#
# Revision: 1
# Processed by: cddbd v1.5.2PL0 Copyright (c) Steve Scherf et al.
# Submitted via: audiograbber 1.83.01
#
DISCID=ab0cca0c
DTITLE=Music For The Inner Peace -  Conscious Body
DYEAR=1900
DGENRE=New Age
TTITLE0=Manu Ritual
TTITLE1=Blue Well
TTITLE2=Body Of Endurance
TTITLE3=Purling
TTITLE4=Conscious State
TTITLE5=Floating
TTITLE6=Early Morning Vision
TTITLE7=Bell Of Relaxation
TTITLE8=Breath Of Sorrow
TTITLE9=A Ritual
TTITLE10=Wanga Body
TTITLE11=Turning Wind
EXTD=
EXTT0=
EXTT1=
EXTT2=
EXTT3=
EXTT4=
EXTT5=
EXTT6=
EXTT7=
EXTT8=
EXTT9=
EXTT10=
EXTT11=
PLAYORDER=
